<svg width="691" height="243" viewBox="0 0 691 243" fill="none" xmlns="http://www.w3.org/2000/svg">
<path d="M59.128 142.224C53.4107 142.224 46.688 140.292 43 138.736C39.312 137.18 33 134.236 27 125.236C21 116.236 20.856 99.3493 20.856 92.096C20.856 84.672 22.136 78.272 24.696 72.896C27.256 67.52 30.8826 63.3813 35.576 60.48C40.2693 57.4933 45.7733 56 52.088 56C58.0613 56 62.968 57.28 66.808 59.84C70.7333 62.3147 73.6346 65.7707 75.512 70.208C77.4746 74.6453 78.456 79.7227 78.456 85.44C78.456 86.3787 78.4133 87.3173 78.328 88.256C78.2426 89.1947 78.1146 90.3467 77.944 91.712H28.664V84.416H68.984L67.832 85.184C67.9173 81.344 67.448 77.8027 66.424 74.56C65.4 71.3173 63.6506 68.7147 61.176 66.752C58.7013 64.7893 55.416 63.808 51.32 63.808C46.968 63.808 43.2986 64.96 40.312 67.264C37.3253 69.568 35.1066 72.7253 33.656 76.736C32.2053 80.7467 31.48 85.3973 31.48 90.688C31.48 96.32 30.3119 111.736 33.656 118.236C37 124.736 40.928 127.517 44 129.736C47.1573 131.955 57.0374 134.288 61.56 134.288C64.7174 134.288 68.1734 133.691 71.9281 132.496C75.6827 131.216 79.5654 129.296 83.576 126.736L85 131.236C83.576 133.236 77.7307 138.171 72.952 139.792C68.1734 141.413 63.5654 142.224 59.128 142.224Z" fill="#2B3347"/>
<path d="M91.1332 113.688C93.711 108.958 94.9999 103.327 94.9999 96.795C94.9999 96.795 76.217 96.663 62.9066 96.795C53.7679 96.795 37.5156 97.1328 37.5156 97.1328C37.3437 98.3341 37.2148 99.3477 37.1289 100.174C37.043 100.999 37 101.825 37 102.651C37 107.681 37.9882 112.149 39.9644 116.053C41.8548 119.957 44.7763 122.998 48.7289 125.175C52.5956 127.427 57.5363 128.554 63.5511 128.554C69.9096 128.554 75.4518 127.24 80.1778 124.612C84.9037 122.059 88.5554 118.418 91.1332 113.688Z" fill="#2B3347"/>
<path d="M47.0046 103.736H83.8992L81.969 111.394C80.5082 114.923 78.2741 117.701 75.2667 119.728C72.2593 121.755 68.5645 122.769 64.1823 122.769C60.0578 122.769 56.7497 121.906 54.2578 120.179C51.766 118.452 50.0045 116.162 48.9734 113.309C47.9423 110.456 46.9186 107.115 47.0046 103.736Z" fill="#404040"/>
<path d="M95 96.7363C95 96.7363 88 103.236 86 96.7363C90.5 132.236 86 139.236 82 148.236C78 157.236 65.0203 164.763 50 162.736C38.6472 161.204 24.5 148.236 24.5 148.236L20 152.236C20 152.236 34 172.236 50 173.236C66 174.236 74.5586 172.175 86 160.236C97.5 148.236 95 124.236 95 96.7363Z" fill="#2B3347"/>
<path d="M71 84.7363C71 81.8472 70.4827 78.9865 69.4776 76.3173C68.4725 73.6481 66.9993 71.2229 65.1421 69.18C63.285 67.1371 61.0802 65.5166 58.6537 64.411C56.2272 63.3054 53.6264 62.7363 51 62.7363C48.3736 62.7363 45.7728 63.3054 43.3463 64.411C40.9198 65.5166 38.715 67.1371 36.8579 69.18C35.0007 71.2229 33.5275 73.6481 32.5224 76.3173C31.5173 78.9865 31 81.8472 31 84.7363L51 84.7363H71Z" fill="#E6BD6B"/>
<path d="M45 102.736C45 105.625 45.5173 108.486 46.5224 111.155C47.5275 113.825 49.0007 116.25 50.8579 118.293C52.715 120.336 54.9198 121.956 57.3463 123.062C59.7728 124.167 62.3736 124.736 65 124.736C67.6264 124.736 70.2272 124.167 72.6537 123.062C75.0802 121.956 77.285 120.336 79.1421 118.293C80.9993 116.25 82.4725 113.825 83.4776 111.155C84.4827 108.486 85 105.625 85 102.736L65 102.736L45 102.736Z" fill="#E6BD6B"/>
<rect x="79" y="20" width="8" height="61" fill="#D6AD5C"/>
<rect x="95" y="96" width="8" height="61" transform="rotate(-90 95 96)" fill="#D6AD5C"/>
<rect x="89" y="80.8193" width="45" height="8" transform="rotate(-45 89 80.8193)" fill="#CC6633"/>
<path d="M198.552 146.225C193.688 146.225 189.432 145.137 185.784 142.961C182.136 140.721 179.288 137.713 177.24 133.937C175.256 130.161 174.264 126.001 174.264 121.457C174.264 116.849 175.224 112.689 177.144 108.977C179.064 105.201 181.816 102.225 185.4 100.049C188.984 97.809 193.208 96.689 198.072 96.689C203 96.689 207.224 97.809 210.744 100.049C214.328 102.225 217.08 105.201 219 108.977C220.92 112.689 221.88 116.849 221.88 121.457V124.337H181.656C182.04 127.153 182.936 129.745 184.344 132.113C185.816 134.417 187.768 136.273 190.2 137.681C192.632 139.025 195.448 139.697 198.648 139.697C202.04 139.697 204.888 138.961 207.192 137.489C209.496 135.953 211.288 134.001 212.568 131.633H220.44C218.776 135.921 216.12 139.441 212.472 142.193C208.888 144.881 204.248 146.225 198.552 146.225ZM181.752 117.617H214.392C213.752 113.521 212.024 110.097 209.208 107.345C206.392 104.593 202.68 103.217 198.072 103.217C193.464 103.217 189.752 104.593 186.936 107.345C184.184 110.097 182.456 113.521 181.752 117.617ZM230.678 145.457V97.457H237.878V104.753C238.966 102.833 240.694 101.009 243.062 99.281C245.43 97.553 248.566 96.689 252.47 96.689C255.67 96.689 258.614 97.553 261.302 99.281C264.054 100.945 266.198 103.313 267.734 106.385C268.374 105.297 269.366 103.985 270.71 102.449C272.118 100.913 273.942 99.569 276.182 98.417C278.422 97.265 281.11 96.689 284.246 96.689C287.318 96.689 290.198 97.489 292.886 99.089C295.574 100.689 297.75 102.993 299.414 106.001C301.142 108.945 302.006 112.433 302.006 116.465V145.457H294.806V116.657C294.806 112.625 293.654 109.393 291.35 106.961C289.11 104.465 286.294 103.217 282.902 103.217C279.382 103.217 276.342 104.401 273.781 106.769C271.222 109.137 269.942 112.465 269.942 116.753V145.457H262.742V116.657C262.742 112.625 261.59 109.393 259.286 106.961C257.046 104.465 254.23 103.217 250.838 103.217C247.318 103.217 244.278 104.401 241.718 106.769C239.158 109.137 237.878 112.465 237.878 116.753V145.457H230.678ZM314.021 145.457V97.457H321.221V104.753C322.309 102.833 324.037 101.009 326.405 99.281C328.773 97.553 331.909 96.689 335.813 96.689C339.013 96.689 341.957 97.553 344.645 99.281C347.397 100.945 349.541 103.313 351.077 106.385C351.717 105.297 352.709 103.985 354.053 102.449C355.461 100.913 357.285 99.569 359.525 98.417C361.765 97.265 364.453 96.689 367.589 96.689C370.661 96.689 373.541 97.489 376.229 99.089C378.917 100.689 381.093 102.993 382.757 106.001C384.485 108.945 385.349 112.433 385.349 116.465V145.457H378.149V116.657C378.149 112.625 376.997 109.393 374.693 106.961C372.453 104.465 369.637 103.217 366.245 103.217C362.725 103.217 359.685 104.401 357.125 106.769C354.565 109.137 353.285 112.465 353.285 116.753V145.457H346.085V116.657C346.085 112.625 344.933 109.393 342.629 106.961C340.389 104.465 337.573 103.217 334.181 103.217C330.661 103.217 327.621 104.401 325.061 106.769C322.501 109.137 321.221 112.465 321.221 116.753V145.457H314.021ZM417.621 146.225C412.949 146.225 408.853 145.137 405.333 142.961C401.877 140.721 399.189 137.713 397.269 133.937C395.349 130.161 394.389 126.001 394.389 121.457C394.389 116.849 395.349 112.689 397.269 108.977C399.189 105.201 401.877 102.225 405.333 100.049C408.853 97.809 412.949 96.689 417.621 96.689C421.589 96.689 424.981 97.457 427.797 98.993C430.677 100.529 433.013 102.609 434.805 105.233V97.457H442.005V145.457H434.805V137.777C433.013 140.337 430.677 142.385 427.797 143.921C424.981 145.457 421.589 146.225 417.621 146.225ZM418.581 139.697C422.165 139.697 425.173 138.865 427.605 137.201C430.101 135.537 431.989 133.329 433.269 130.577C434.549 127.761 435.189 124.721 435.189 121.457C435.189 118.129 434.549 115.089 433.269 112.337C431.989 109.585 430.101 107.377 427.605 105.713C425.173 104.049 422.165 103.217 418.581 103.217C415.061 103.217 412.021 104.049 409.461 105.713C406.901 107.377 404.949 109.585 403.605 112.337C402.261 115.089 401.589 118.129 401.589 121.457C401.589 124.721 402.261 127.761 403.605 130.577C404.949 133.329 406.901 135.537 409.461 137.201C412.021 138.865 415.061 139.697 418.581 139.697ZM496.88 165.233C490.864 165.233 485.968 163.921 482.192 161.297C478.416 158.737 475.856 155.377 474.512 151.217H482.48C483.44 153.585 485.104 155.409 487.472 156.689C489.84 158.033 492.848 158.705 496.496 158.705C502 158.705 506 157.393 508.496 154.769C511.056 152.209 512.336 148.465 512.336 143.537V136.913C510.544 139.473 508.208 141.553 505.328 143.153C502.512 144.689 499.12 145.457 495.152 145.457C490.48 145.457 486.384 144.401 482.864 142.289C479.408 140.113 476.72 137.169 474.8 133.457C472.88 129.745 471.92 125.617 471.92 121.073C471.92 116.465 472.88 112.337 474.8 108.689C476.72 104.977 479.408 102.065 482.864 99.953C486.384 97.777 490.48 96.689 495.152 96.689C499.12 96.689 502.512 97.457 505.328 98.993C508.208 100.465 510.544 102.513 512.336 105.137V97.457H519.536V144.017C519.536 150.865 517.552 156.113 513.584 159.761C509.68 163.409 504.112 165.233 496.88 165.233ZM496.112 138.929C499.632 138.929 502.608 138.129 505.04 136.529C507.536 134.929 509.424 132.785 510.704 130.097C512.048 127.345 512.72 124.337 512.72 121.073C512.72 117.745 512.048 114.737 510.704 112.049C509.424 109.361 507.536 107.217 505.04 105.617C502.608 104.017 499.632 103.217 496.112 103.217C492.592 103.217 489.552 104.017 486.992 105.617C484.432 107.217 482.48 109.361 481.136 112.049C479.792 114.737 479.12 117.745 479.12 121.073C479.12 124.337 479.792 127.345 481.136 130.097C482.48 132.785 484.432 134.929 486.992 136.529C489.552 138.129 492.592 138.929 496.112 138.929ZM531.99 145.457V97.457H539.19V109.265C539.446 108.433 539.926 107.345 540.63 106.001C541.398 104.593 542.486 103.185 543.894 101.777C545.302 100.369 547.062 99.185 549.174 98.225C551.35 97.201 553.91 96.689 556.854 96.689H557.334V103.889H556.47C552.886 103.889 549.782 104.881 547.158 106.865C544.598 108.785 542.614 111.313 541.206 114.449C539.862 117.521 539.19 120.817 539.19 124.337V145.457H531.99ZM585.177 146.225C580.313 146.225 576.057 145.137 572.409 142.961C568.761 140.721 565.913 137.713 563.865 133.937C561.881 130.161 560.889 126.001 560.889 121.457C560.889 116.849 561.849 112.689 563.769 108.977C565.689 105.201 568.441 102.225 572.025 100.049C575.609 97.809 579.833 96.689 584.697 96.689C589.625 96.689 593.849 97.809 597.369 100.049C600.953 102.225 603.705 105.201 605.625 108.977C607.545 112.689 608.505 116.849 608.505 121.457V124.337H568.281C568.665 127.153 569.561 129.745 570.969 132.113C572.441 134.417 574.393 136.273 576.825 137.681C579.257 139.025 582.073 139.697 585.273 139.697C588.665 139.697 591.513 138.961 593.817 137.489C596.121 135.953 597.913 134.001 599.193 131.633H607.065C605.401 135.921 602.745 139.441 599.097 142.193C595.513 144.881 590.873 146.225 585.177 146.225ZM568.377 117.617H601.017C600.377 113.521 598.649 110.097 595.833 107.345C593.017 104.593 589.305 103.217 584.697 103.217C580.089 103.217 576.377 104.593 573.561 107.345C570.809 110.097 569.081 113.521 568.377 117.617ZM622.295 164.465L631.031 144.785L611.447 97.457H619.415L634.871 136.817L650.615 97.457H658.487L630.071 164.465H622.295Z" fill="#242424"/>
<path d="M22.976 184.425V179.721H26.864V184.425H22.976ZM23.12 212.457V188.457H26.72V212.457H23.12ZM32.9638 212.457V188.457H36.5638V192.201C37.4278 191.049 38.4838 190.073 39.7318 189.273C40.9798 188.473 42.5798 188.073 44.5318 188.073C46.1958 188.073 47.7478 188.473 49.1878 189.273C50.6598 190.041 51.8438 191.209 52.7398 192.777C53.6678 194.313 54.1318 196.217 54.1318 198.489V212.457H50.5318V198.585C50.5318 196.409 49.9078 194.665 48.6598 193.353C47.4118 192.009 45.7958 191.337 43.8118 191.337C42.4678 191.337 41.2518 191.641 40.1638 192.249C39.0758 192.857 38.1958 193.721 37.5238 194.841C36.8838 195.929 36.5638 197.193 36.5638 198.633V212.457H32.9638ZM62.1808 212.457V191.625H57.2848V188.457H62.1808V179.865H65.7808V188.457H71.3008V191.625H65.7808V212.457H62.1808ZM85.4323 212.841C83.0003 212.841 80.8723 212.297 79.0483 211.209C77.2243 210.089 75.8003 208.585 74.7763 206.697C73.7843 204.809 73.2883 202.729 73.2883 200.457C73.2883 198.153 73.7683 196.073 74.7283 194.217C75.6883 192.329 77.0643 190.841 78.8563 189.753C80.6483 188.633 82.7603 188.073 85.1923 188.073C87.6563 188.073 89.7683 188.633 91.5283 189.753C93.3203 190.841 94.6963 192.329 95.6562 194.217C96.6163 196.073 97.0963 198.153 97.0963 200.457V201.897H76.9843C77.1763 203.305 77.6243 204.601 78.3283 205.785C79.0643 206.937 80.0403 207.865 81.2563 208.569C82.4723 209.241 83.8803 209.577 85.4803 209.577C87.1763 209.577 88.6003 209.209 89.7523 208.473C90.9043 207.705 91.8003 206.729 92.4403 205.545H96.3763C95.5443 207.689 94.2163 209.449 92.3923 210.825C90.6003 212.169 88.2803 212.841 85.4323 212.841ZM77.0323 198.537H93.3523C93.0323 196.489 92.1683 194.777 90.7603 193.401C89.3523 192.025 87.4963 191.337 85.1923 191.337C82.8883 191.337 81.0323 192.025 79.6243 193.401C78.2483 194.777 77.3843 196.489 77.0323 198.537ZM101.495 212.457V188.457H105.095V194.361C105.223 193.945 105.463 193.401 105.815 192.729C106.199 192.025 106.743 191.321 107.447 190.617C108.151 189.913 109.031 189.321 110.087 188.841C111.175 188.329 112.455 188.073 113.927 188.073H114.167V191.673H113.735C111.943 191.673 110.391 192.169 109.079 193.161C107.799 194.121 106.807 195.385 106.103 196.953C105.431 198.489 105.095 200.137 105.095 201.897V212.457H101.495ZM119.674 212.457V191.625H115.546V188.457H119.674V186.345C119.674 183.721 120.458 181.753 122.026 180.441C123.626 179.129 125.802 178.473 128.554 178.473H128.842V181.881H128.362C126.698 181.881 125.434 182.265 124.57 183.033C123.706 183.769 123.274 184.969 123.274 186.633V188.457H128.842V191.625H123.274V212.457H119.674ZM142.42 212.841C140.084 212.841 138.036 212.297 136.276 211.209C134.548 210.089 133.204 208.585 132.244 206.697C131.284 204.809 130.804 202.729 130.804 200.457C130.804 198.153 131.284 196.073 132.244 194.217C133.204 192.329 134.548 190.841 136.276 189.753C138.036 188.633 140.084 188.073 142.42 188.073C144.404 188.073 146.1 188.457 147.508 189.225C148.948 189.993 150.116 191.033 151.012 192.345V188.457H154.612V212.457H151.012V208.617C150.116 209.897 148.948 210.921 147.508 211.689C146.1 212.457 144.404 212.841 142.42 212.841ZM142.9 209.577C144.692 209.577 146.196 209.161 147.412 208.329C148.66 207.497 149.604 206.393 150.244 205.017C150.884 203.609 151.204 202.089 151.204 200.457C151.204 198.793 150.884 197.273 150.244 195.897C149.604 194.521 148.66 193.417 147.412 192.585C146.196 191.753 144.692 191.337 142.9 191.337C141.14 191.337 139.62 191.753 138.34 192.585C137.06 193.417 136.084 194.521 135.412 195.897C134.74 197.273 134.404 198.793 134.404 200.457C134.404 202.089 134.74 203.609 135.412 205.017C136.084 206.393 137.06 207.497 138.34 208.329C139.62 209.161 141.14 209.577 142.9 209.577ZM171.159 212.841C168.759 212.841 166.679 212.297 164.919 211.209C163.159 210.089 161.783 208.585 160.791 206.697C159.831 204.809 159.351 202.729 159.351 200.457C159.351 198.153 159.831 196.073 160.791 194.217C161.783 192.329 163.159 190.841 164.919 189.753C166.679 188.633 168.759 188.073 171.159 188.073C174.007 188.073 176.423 188.809 178.407 190.281C180.423 191.753 181.783 193.657 182.487 195.993H178.599C178.055 194.617 177.175 193.497 175.959 192.633C174.775 191.769 173.335 191.337 171.639 191.337C169.879 191.337 168.343 191.753 167.031 192.585C165.719 193.417 164.711 194.521 164.007 195.897C163.303 197.273 162.951 198.793 162.951 200.457C162.951 202.089 163.303 203.609 164.007 205.017C164.711 206.393 165.719 207.497 167.031 208.329C168.343 209.161 169.879 209.577 171.639 209.577C173.335 209.577 174.775 209.145 175.959 208.281C177.175 207.417 178.055 206.297 178.599 204.921H182.487C181.783 207.257 180.423 209.161 178.407 210.633C176.423 212.105 174.007 212.841 171.159 212.841ZM197.604 212.841C195.172 212.841 193.044 212.297 191.22 211.209C189.396 210.089 187.972 208.585 186.948 206.697C185.956 204.809 185.46 202.729 185.46 200.457C185.46 198.153 185.94 196.073 186.9 194.217C187.86 192.329 189.236 190.841 191.028 189.753C192.82 188.633 194.932 188.073 197.364 188.073C199.828 188.073 201.94 188.633 203.7 189.753C205.492 190.841 206.868 192.329 207.828 194.217C208.788 196.073 209.268 198.153 209.268 200.457V201.897H189.156C189.348 203.305 189.796 204.601 190.5 205.785C191.236 206.937 192.212 207.865 193.428 208.569C194.644 209.241 196.052 209.577 197.652 209.577C199.348 209.577 200.772 209.209 201.924 208.473C203.076 207.705 203.972 206.729 204.612 205.545H208.548C207.716 207.689 206.388 209.449 204.564 210.825C202.772 212.169 200.452 212.841 197.604 212.841ZM189.204 198.537H205.524C205.204 196.489 204.34 194.777 202.932 193.401C201.524 192.025 199.668 191.337 197.364 191.337C195.06 191.337 193.204 192.025 191.796 193.401C190.42 194.777 189.556 196.489 189.204 198.537ZM234.014 212.841C231.678 212.841 229.63 212.297 227.87 211.209C226.142 210.089 224.798 208.585 223.838 206.697C222.878 204.809 222.398 202.729 222.398 200.457C222.398 198.153 222.878 196.073 223.838 194.217C224.798 192.329 226.142 190.841 227.87 189.753C229.63 188.633 231.678 188.073 234.014 188.073C235.998 188.073 237.694 188.457 239.102 189.225C240.542 189.993 241.71 191.033 242.606 192.345V178.857H246.206V212.457H242.606V208.617C241.71 209.897 240.542 210.921 239.102 211.689C237.694 212.457 235.998 212.841 234.014 212.841ZM234.494 209.577C236.286 209.577 237.79 209.161 239.006 208.329C240.254 207.497 241.198 206.393 241.838 205.017C242.478 203.609 242.798 202.089 242.798 200.457C242.798 198.793 242.478 197.273 241.838 195.897C241.198 194.521 240.254 193.417 239.006 192.585C237.79 191.753 236.286 191.337 234.494 191.337C232.734 191.337 231.214 191.753 229.934 192.585C228.654 193.417 227.678 194.521 227.006 195.897C226.334 197.273 225.998 198.793 225.998 200.457C225.998 202.089 226.334 203.609 227.006 205.017C227.678 206.393 228.654 207.497 229.934 208.329C231.214 209.161 232.734 209.577 234.494 209.577ZM263.089 212.841C260.657 212.841 258.529 212.297 256.705 211.209C254.881 210.089 253.457 208.585 252.433 206.697C251.441 204.809 250.945 202.729 250.945 200.457C250.945 198.153 251.425 196.073 252.385 194.217C253.345 192.329 254.721 190.841 256.513 189.753C258.305 188.633 260.417 188.073 262.849 188.073C265.313 188.073 267.425 188.633 269.185 189.753C270.977 190.841 272.353 192.329 273.312 194.217C274.273 196.073 274.753 198.153 274.753 200.457V201.897H254.641C254.833 203.305 255.281 204.601 255.985 205.785C256.721 206.937 257.697 207.865 258.913 208.569C260.129 209.241 261.537 209.577 263.137 209.577C264.833 209.577 266.257 209.209 267.409 208.473C268.561 207.705 269.457 206.729 270.097 205.545H274.033C273.201 207.689 271.873 209.449 270.049 210.825C268.257 212.169 265.937 212.841 263.089 212.841ZM254.689 198.537H271.009C270.689 196.489 269.825 194.777 268.417 193.401C267.009 192.025 265.153 191.337 262.849 191.337C260.545 191.337 258.689 192.025 257.281 193.401C255.905 194.777 255.041 196.489 254.689 198.537ZM287.887 212.841C285.679 212.841 283.807 212.473 282.271 211.737C280.767 211.001 279.615 210.041 278.815 208.857C278.015 207.641 277.567 206.329 277.471 204.921H281.215C281.311 205.721 281.583 206.505 282.031 207.273C282.511 208.009 283.231 208.617 284.191 209.097C285.151 209.545 286.399 209.769 287.935 209.769C288.415 209.769 289.007 209.721 289.711 209.625C290.415 209.529 291.087 209.353 291.727 209.097C292.399 208.841 292.959 208.457 293.407 207.945C293.855 207.433 294.079 206.777 294.079 205.977C294.079 204.985 293.695 204.217 292.927 203.673C292.159 203.129 291.167 202.713 289.951 202.425C288.735 202.105 287.439 201.801 286.063 201.513C284.719 201.225 283.439 200.857 282.223 200.409C281.007 199.929 280.015 199.273 279.247 198.441C278.479 197.577 278.095 196.409 278.095 194.937C278.095 192.761 278.879 191.081 280.447 189.897C282.047 188.681 284.399 188.073 287.503 188.073C289.615 188.073 291.327 188.409 292.639 189.081C293.983 189.721 294.991 190.553 295.663 191.577C296.367 192.601 296.783 193.705 296.911 194.889H293.263C293.135 193.865 292.623 192.985 291.727 192.249C290.863 191.513 289.423 191.145 287.407 191.145C283.599 191.145 281.695 192.297 281.695 194.601C281.695 195.561 282.079 196.297 282.847 196.809C283.615 197.321 284.607 197.737 285.823 198.057C287.039 198.345 288.319 198.633 289.663 198.921C291.039 199.177 292.335 199.545 293.551 200.025C294.767 200.505 295.759 201.193 296.527 202.089C297.295 202.953 297.679 204.137 297.679 205.641C297.679 207.977 296.783 209.769 294.991 211.017C293.231 212.233 290.863 212.841 287.887 212.841ZM302.164 184.425V179.721H306.052V184.425H302.164ZM302.308 212.457V188.457H305.908V212.457H302.308ZM323.143 222.345C320.135 222.345 317.687 221.689 315.799 220.377C313.911 219.097 312.631 217.417 311.959 215.337H315.943C316.423 216.521 317.255 217.433 318.439 218.073C319.623 218.745 321.127 219.081 322.951 219.081C325.703 219.081 327.703 218.425 328.951 217.113C330.231 215.833 330.871 213.961 330.871 211.497V208.185C329.975 209.465 328.807 210.505 327.367 211.305C325.959 212.073 324.263 212.457 322.279 212.457C319.943 212.457 317.895 211.929 316.135 210.873C314.407 209.785 313.063 208.313 312.103 206.457C311.143 204.601 310.663 202.537 310.663 200.265C310.663 197.961 311.143 195.897 312.103 194.073C313.063 192.217 314.407 190.761 316.135 189.705C317.895 188.617 319.943 188.073 322.279 188.073C324.263 188.073 325.959 188.457 327.367 189.225C328.807 189.961 329.975 190.985 330.871 192.297V188.457H334.471V211.737C334.471 215.161 333.479 217.785 331.495 219.609C329.543 221.433 326.759 222.345 323.143 222.345ZM322.759 209.193C324.519 209.193 326.007 208.793 327.223 207.993C328.471 207.193 329.415 206.121 330.055 204.777C330.727 203.401 331.063 201.897 331.063 200.265C331.063 198.601 330.727 197.097 330.055 195.753C329.415 194.409 328.471 193.337 327.223 192.537C326.007 191.737 324.519 191.337 322.759 191.337C320.999 191.337 319.479 191.737 318.199 192.537C316.919 193.337 315.943 194.409 315.271 195.753C314.599 197.097 314.263 198.601 314.263 200.265C314.263 201.897 314.599 203.401 315.271 204.777C315.943 206.121 316.919 207.193 318.199 207.993C319.479 208.793 320.999 209.193 322.759 209.193ZM340.698 212.457V188.457H344.298V192.201C345.162 191.049 346.218 190.073 347.466 189.273C348.714 188.473 350.314 188.073 352.266 188.073C353.93 188.073 355.482 188.473 356.922 189.273C358.394 190.041 359.578 191.209 360.474 192.777C361.402 194.313 361.866 196.217 361.866 198.489V212.457H358.266V198.585C358.266 196.409 357.642 194.665 356.394 193.353C355.146 192.009 353.53 191.337 351.546 191.337C350.202 191.337 348.986 191.641 347.898 192.249C346.81 192.857 345.93 193.721 345.258 194.841C344.618 195.929 344.298 197.193 344.298 198.633V212.457H340.698ZM378.542 212.841C376.11 212.841 373.982 212.297 372.158 211.209C370.334 210.089 368.91 208.585 367.886 206.697C366.894 204.809 366.398 202.729 366.398 200.457C366.398 198.153 366.878 196.073 367.838 194.217C368.798 192.329 370.174 190.841 371.966 189.753C373.758 188.633 375.87 188.073 378.302 188.073C380.766 188.073 382.878 188.633 384.638 189.753C386.43 190.841 387.806 192.329 388.766 194.217C389.726 196.073 390.206 198.153 390.206 200.457V201.897H370.094C370.286 203.305 370.734 204.601 371.438 205.785C372.174 206.937 373.15 207.865 374.366 208.569C375.582 209.241 376.99 209.577 378.59 209.577C380.286 209.577 381.71 209.209 382.862 208.473C384.014 207.705 384.91 206.729 385.55 205.545H389.486C388.654 207.689 387.326 209.449 385.502 210.825C383.71 212.169 381.39 212.841 378.542 212.841ZM370.142 198.537H386.462C386.142 196.489 385.278 194.777 383.87 193.401C382.462 192.025 380.606 191.337 378.302 191.337C375.998 191.337 374.142 192.025 372.734 193.401C371.358 194.777 370.494 196.489 370.142 198.537ZM394.604 212.457V188.457H398.204V194.361C398.332 193.945 398.572 193.401 398.924 192.729C399.308 192.025 399.852 191.321 400.556 190.617C401.26 189.913 402.14 189.321 403.196 188.841C404.284 188.329 405.564 188.073 407.036 188.073H407.276V191.673H406.844C405.052 191.673 403.5 192.169 402.188 193.161C400.908 194.121 399.916 195.385 399.212 196.953C398.54 198.489 398.204 200.137 398.204 201.897V212.457H394.604ZM431.162 212.841C429.178 212.841 427.338 212.441 425.642 211.641C423.946 210.841 422.586 209.737 421.562 208.329C420.538 206.889 420.026 205.225 420.026 203.337C420.026 201.641 420.538 200.121 421.562 198.777C422.586 197.401 424.026 196.361 425.882 195.657C425.178 195.433 424.442 195.001 423.674 194.361C422.938 193.689 422.314 192.889 421.802 191.961C421.322 191.033 421.082 190.041 421.082 188.985C421.082 186.521 421.978 184.457 423.77 182.793C425.562 181.129 428.186 180.297 431.642 180.297C433.818 180.297 435.61 180.633 437.018 181.305C438.426 181.945 439.498 182.777 440.234 183.801C441.002 184.793 441.498 185.833 441.722 186.921H437.93C437.706 186.153 437.05 185.401 435.962 184.665C434.906 183.929 433.434 183.561 431.546 183.561C429.178 183.561 427.434 184.105 426.314 185.193C425.226 186.249 424.682 187.529 424.682 189.033C424.682 190.825 425.306 192.153 426.554 193.017C427.802 193.881 429.258 194.313 430.922 194.313H438.65V192.201H442.01V194.313H445.13V197.529H442.01V203.625C442.01 206.345 441.05 208.569 439.13 210.297C437.21 211.993 434.554 212.841 431.162 212.841ZM431.162 209.625C433.69 209.625 435.562 209.049 436.778 207.897C438.026 206.713 438.65 205.385 438.65 203.913V197.529H430.49C429.146 197.529 427.946 197.801 426.89 198.345C425.866 198.889 425.066 199.609 424.49 200.505C423.914 201.369 423.626 202.345 423.626 203.433C423.626 204.521 423.93 205.545 424.538 206.505C425.178 207.433 426.058 208.185 427.178 208.761C428.33 209.337 429.658 209.625 431.162 209.625ZM469.561 212.841C467.225 212.841 465.177 212.297 463.417 211.209C461.689 210.089 460.345 208.585 459.385 206.697C458.425 204.809 457.945 202.729 457.945 200.457C457.945 198.153 458.425 196.073 459.385 194.217C460.345 192.329 461.689 190.841 463.417 189.753C465.177 188.633 467.225 188.073 469.561 188.073C471.545 188.073 473.241 188.457 474.649 189.225C476.089 189.993 477.257 191.033 478.153 192.345V178.857H481.753V212.457H478.153V208.617C477.257 209.897 476.089 210.921 474.649 211.689C473.241 212.457 471.545 212.841 469.561 212.841ZM470.041 209.577C471.833 209.577 473.337 209.161 474.553 208.329C475.801 207.497 476.745 206.393 477.385 205.017C478.025 203.609 478.345 202.089 478.345 200.457C478.345 198.793 478.025 197.273 477.385 195.897C476.745 194.521 475.801 193.417 474.553 192.585C473.337 191.753 471.833 191.337 470.041 191.337C468.281 191.337 466.761 191.753 465.481 192.585C464.201 193.417 463.225 194.521 462.553 195.897C461.881 197.273 461.545 198.793 461.545 200.457C461.545 202.089 461.881 203.609 462.553 205.017C463.225 206.393 464.201 207.497 465.481 208.329C466.761 209.161 468.281 209.577 470.041 209.577ZM498.635 212.841C496.203 212.841 494.075 212.297 492.251 211.209C490.427 210.089 489.003 208.585 487.979 206.697C486.987 204.809 486.491 202.729 486.491 200.457C486.491 198.153 486.971 196.073 487.931 194.217C488.891 192.329 490.267 190.841 492.059 189.753C493.851 188.633 495.963 188.073 498.395 188.073C500.859 188.073 502.971 188.633 504.731 189.753C506.523 190.841 507.899 192.329 508.859 194.217C509.819 196.073 510.299 198.153 510.299 200.457V201.897H490.187C490.379 203.305 490.827 204.601 491.531 205.785C492.267 206.937 493.243 207.865 494.459 208.569C495.675 209.241 497.083 209.577 498.683 209.577C500.379 209.577 501.803 209.209 502.955 208.473C504.107 207.705 505.003 206.729 505.643 205.545H509.579C508.747 207.689 507.419 209.449 505.595 210.825C503.803 212.169 501.483 212.841 498.635 212.841ZM490.235 198.537H506.555C506.235 196.489 505.371 194.777 503.963 193.401C502.555 192.025 500.699 191.337 498.395 191.337C496.091 191.337 494.235 192.025 492.827 193.401C491.451 194.777 490.587 196.489 490.235 198.537ZM521.226 212.457L511.818 188.457H515.754L523.338 208.617L530.874 188.457H534.81L525.45 212.457H521.226ZM548.37 212.841C545.938 212.841 543.81 212.297 541.986 211.209C540.162 210.089 538.738 208.585 537.714 206.697C536.722 204.809 536.226 202.729 536.226 200.457C536.226 198.153 536.706 196.073 537.666 194.217C538.626 192.329 540.002 190.841 541.794 189.753C543.586 188.633 545.698 188.073 548.13 188.073C550.594 188.073 552.706 188.633 554.466 189.753C556.258 190.841 557.634 192.329 558.594 194.217C559.554 196.073 560.034 198.153 560.034 200.457V201.897H539.922C540.114 203.305 540.562 204.601 541.266 205.785C542.002 206.937 542.978 207.865 544.194 208.569C545.41 209.241 546.818 209.577 548.418 209.577C550.114 209.577 551.538 209.209 552.69 208.473C553.842 207.705 554.738 206.729 555.378 205.545H559.314C558.482 207.689 557.154 209.449 555.33 210.825C553.538 212.169 551.218 212.841 548.37 212.841ZM539.97 198.537H556.29C555.97 196.489 555.106 194.777 553.698 193.401C552.29 192.025 550.434 191.337 548.13 191.337C545.826 191.337 543.97 192.025 542.562 193.401C541.186 194.777 540.322 196.489 539.97 198.537ZM564.433 212.457V178.857H568.033V212.457H564.433ZM584.692 212.841C582.26 212.841 580.148 212.297 578.356 211.209C576.564 210.089 575.188 208.585 574.228 206.697C573.268 204.809 572.788 202.729 572.788 200.457C572.788 198.153 573.268 196.073 574.228 194.217C575.188 192.329 576.564 190.841 578.356 189.753C580.148 188.633 582.26 188.073 584.692 188.073C587.156 188.073 589.268 188.633 591.028 189.753C592.82 190.841 594.196 192.329 595.156 194.217C596.116 196.073 596.596 198.153 596.596 200.457C596.596 202.729 596.116 204.809 595.156 206.697C594.196 208.585 592.82 210.089 591.028 211.209C589.268 212.297 587.156 212.841 584.692 212.841ZM584.692 209.577C586.484 209.577 587.988 209.161 589.204 208.329C590.452 207.497 591.396 206.393 592.036 205.017C592.676 203.609 592.996 202.089 592.996 200.457C592.996 198.793 592.676 197.273 592.036 195.897C591.396 194.521 590.452 193.417 589.204 192.585C587.988 191.753 586.484 191.337 584.692 191.337C582.932 191.337 581.428 191.753 580.18 192.585C578.932 193.417 577.988 194.521 577.348 195.897C576.708 197.273 576.388 198.793 576.388 200.457C576.388 202.089 576.708 203.609 577.348 205.017C577.988 206.393 578.932 207.497 580.18 208.329C581.428 209.161 582.932 209.577 584.692 209.577ZM601.37 221.961V188.457H604.97V192.297C605.866 190.985 607.018 189.961 608.426 189.225C609.866 188.457 611.578 188.073 613.562 188.073C615.898 188.073 617.93 188.633 619.658 189.753C621.418 190.841 622.778 192.329 623.738 194.217C624.698 196.073 625.178 198.153 625.178 200.457C625.178 202.729 624.698 204.809 623.738 206.697C622.778 208.585 621.418 210.089 619.658 211.209C617.93 212.297 615.898 212.841 613.562 212.841C611.578 212.841 609.866 212.457 608.426 211.689C607.018 210.889 605.866 209.849 604.97 208.569V221.961H601.37ZM613.082 209.577C614.874 209.577 616.394 209.161 617.642 208.329C618.922 207.497 619.898 206.393 620.57 205.017C621.242 203.609 621.578 202.089 621.578 200.457C621.578 198.793 621.242 197.273 620.57 195.897C619.898 194.521 618.922 193.417 617.642 192.585C616.394 191.753 614.874 191.337 613.082 191.337C611.322 191.337 609.818 191.753 608.57 192.585C607.322 193.417 606.378 194.521 605.738 195.897C605.098 197.273 604.778 198.793 604.778 200.457C604.778 202.089 605.098 203.609 605.738 205.017C606.378 206.393 607.322 207.497 608.57 208.329C609.818 209.161 611.322 209.577 613.082 209.577ZM640.573 212.841C638.141 212.841 636.013 212.297 634.189 211.209C632.365 210.089 630.941 208.585 629.917 206.697C628.925 204.809 628.429 202.729 628.429 200.457C628.429 198.153 628.909 196.073 629.869 194.217C630.829 192.329 632.205 190.841 633.997 189.753C635.789 188.633 637.901 188.073 640.333 188.073C642.797 188.073 644.909 188.633 646.669 189.753C648.461 190.841 649.837 192.329 650.797 194.217C651.757 196.073 652.237 198.153 652.237 200.457V201.897H632.125C632.317 203.305 632.765 204.601 633.469 205.785C634.205 206.937 635.181 207.865 636.397 208.569C637.613 209.241 639.021 209.577 640.621 209.577C642.317 209.577 643.741 209.209 644.893 208.473C646.045 207.705 646.941 206.729 647.581 205.545H651.517C650.685 207.689 649.357 209.449 647.533 210.825C645.741 212.169 643.421 212.841 640.573 212.841ZM632.173 198.537H648.493C648.173 196.489 647.309 194.777 645.901 193.401C644.493 192.025 642.637 191.337 640.333 191.337C638.029 191.337 636.173 192.025 634.765 193.401C633.389 194.777 632.525 196.489 632.173 198.537ZM656.636 212.457V188.457H660.236V194.361C660.364 193.945 660.604 193.401 660.956 192.729C661.34 192.025 661.884 191.321 662.588 190.617C663.292 189.913 664.172 189.321 665.228 188.841C666.316 188.329 667.596 188.073 669.068 188.073H669.308V191.673H668.876C667.084 191.673 665.532 192.169 664.22 193.161C662.94 194.121 661.948 195.385 661.244 196.953C660.572 198.489 660.236 200.137 660.236 201.897V212.457H656.636Z" fill="#242424"/>
</svg>
