<svg width="690" height="690" viewBox="0 0 690 690" fill="none" xmlns="http://www.w3.org/2000/svg">
<circle cx="345" cy="345" r="100" transform="rotate(-90 345 345)" fill="#2B3347"/>
<circle cx="345.5" cy="345.5" r="82.5" transform="rotate(-90 345.5 345.5)" fill="#E6BD6B"/>
<rect y="363" width="36" height="231" transform="rotate(-90 0 363)" fill="#D6AD5C"/>
<rect x="459" y="363" width="36" height="231" transform="rotate(-90 459 363)" fill="#D6AD5C"/>
<rect x="327" width="36" height="231" fill="#D6AD5C"/>
<rect x="132.868" y="158.324" width="36" height="168" transform="rotate(-45 132.868 158.324)" fill="#CC6633"/>
<rect x="412.882" y="438.338" width="36" height="168" transform="rotate(-45 412.882 438.338)" fill="#CC6633"/>
<rect x="438.338" y="277.118" width="36" height="168" transform="rotate(-135 438.338 277.118)" fill="#CC6633"/>
<rect x="158.324" y="557.132" width="36" height="168" transform="rotate(-135 158.324 557.132)" fill="#CC6633"/>
<rect x="327" y="459" width="36" height="231" fill="#D6AD5C"/>
</svg>
