<svg width="690" height="348" viewBox="0 0 690 348" fill="none" xmlns="http://www.w3.org/2000/svg">
<mask id="mask0_54_113" style="mask-type:alpha" maskUnits="userSpaceOnUse" x="0" y="0" width="690" height="348">
<rect width="690" height="348" fill="#D9D9D9"/>
</mask>
<g mask="url(#mask0_54_113)">
<path d="M0 327L0 348H231V327H0Z" fill="#D6AD5C"/>
<path d="M459 327V348H690V327H459Z" fill="#D6AD5C"/>
<path d="M363 0H327V231H363V0Z" fill="#D6AD5C"/>
<path d="M158.324 132.868L132.868 158.324L251.662 277.118L277.118 251.662L158.324 132.868Z" fill="#CC6633"/>
<path d="M412.882 251.662L438.338 277.118L557.132 158.324L531.676 132.868L412.882 251.662Z" fill="#CC6633"/>
<path d="M445 348C445 334.868 442.413 321.864 437.388 309.732C432.362 297.599 424.997 286.575 415.711 277.289C406.425 268.003 395.401 260.638 383.268 255.612C371.136 250.587 358.132 248 345 248C331.868 248 318.864 250.587 306.732 255.612C294.599 260.638 283.575 268.003 274.289 277.289C265.003 286.575 257.638 297.599 252.612 309.732C247.587 321.864 245 334.868 245 348L345 348H445Z" fill="#2B3347"/>
<path d="M428 347.5C428 336.666 425.866 325.938 421.72 315.929C417.574 305.919 411.497 296.825 403.836 289.164C396.175 281.503 387.081 275.426 377.071 271.28C367.062 267.134 356.334 265 345.5 265C334.666 265 323.938 267.134 313.929 271.28C303.919 275.426 294.825 281.503 287.164 289.164C279.503 296.825 273.426 305.919 269.28 315.929C265.134 325.938 263 336.666 263 347.5L345.5 347.5H428Z" fill="#E6BD6B"/>
</g>
</svg>
