<svg width="352" height="400" viewBox="0 0 352 400" fill="none" xmlns="http://www.w3.org/2000/svg">
<path d="M101.273 318.345C86.4747 318.345 69.0747 313.344 59.5293 309.317C49.984 305.29 33.647 297.67 18.1176 274.376C2.58815 251.082 2.21533 207.375 2.21533 188.602C2.21533 169.387 5.52827 152.822 12.1542 138.908C18.78 124.993 28.1667 114.281 40.3142 106.772C52.4616 99.0419 66.7073 95.1768 83.0511 95.1768C98.5115 95.1768 111.211 98.4897 121.15 105.116C131.31 111.521 138.819 120.466 143.678 131.95C148.758 143.435 151.298 156.577 151.298 171.374C151.298 173.804 151.187 176.233 150.966 178.663C150.746 181.092 150.414 184.074 149.973 187.608H22.4243V168.724H126.782L123.8 170.712C124.021 160.773 122.806 151.607 120.156 143.214C117.506 134.822 112.978 128.085 106.573 123.005C100.168 117.926 91.6648 115.386 81.0633 115.386C69.7993 115.386 60.3022 118.367 52.572 124.331C44.8419 130.294 39.0994 138.466 35.3447 148.846C31.5901 159.227 29.7127 171.264 29.7127 184.957C29.7127 199.534 26.6896 239.435 35.3447 256.258C43.9999 273.082 54.1665 280.281 62.1176 286.023C70.2895 291.765 95.8614 297.805 107.567 297.805C115.739 297.805 124.684 296.259 134.402 293.166C144.12 289.854 154.169 284.884 164.55 278.258L168.235 289.905C164.55 295.082 149.421 307.854 137.052 312.05C124.684 316.247 112.757 318.345 101.273 318.345Z" fill="#E4D9C7"/>
<path d="M184.109 244.486C190.781 232.243 194.117 217.669 194.117 200.763C194.117 200.763 145.503 200.422 111.052 200.763C87.3993 200.763 45.3344 201.638 45.3344 201.638C44.8896 204.747 44.556 207.37 44.3336 209.508C44.1112 211.645 44 213.783 44 215.92C44 228.94 46.5576 240.502 51.6727 250.607C56.5654 260.712 64.1269 268.582 74.3571 274.217C84.365 280.047 97.1527 282.962 112.72 282.962C129.178 282.962 143.522 279.561 155.754 272.76C167.986 266.153 177.438 256.728 184.109 244.486Z" fill="#E4D9C7"/>
<path d="M69.8942 218.729H165.386L160.39 238.549C156.61 247.683 150.827 254.873 143.043 260.119C135.259 265.366 125.696 267.989 114.354 267.989C103.679 267.989 95.1169 265.755 88.6674 261.285C82.2179 256.816 77.6588 250.889 74.99 243.505C72.3212 236.12 69.6718 227.473 69.8942 218.729Z" fill="#484844"/>
<path d="M194.118 200.611C194.118 200.611 176 217.435 170.824 200.611C182.471 292.494 170.824 310.611 160.471 333.905C150.118 357.2 116.523 376.681 77.6471 371.435C48.2632 367.47 11.6471 333.905 11.6471 333.905L0 344.258C0 344.258 36.2353 396.023 77.6471 398.611C119.059 401.2 141.211 395.865 170.824 364.964C200.588 333.905 194.118 271.788 194.118 200.611Z" fill="#E4D9C7"/>
<path d="M132 169.553C132 162.075 130.661 154.67 128.06 147.762C125.458 140.854 121.645 134.576 116.839 129.289C112.032 124.002 106.325 119.807 100.045 116.946C93.7645 114.084 87.0332 112.611 80.2354 112.611C73.4376 112.611 66.7063 114.084 60.4259 116.946C54.1455 119.807 48.439 124.002 43.6322 129.289C38.8254 134.576 35.0125 140.854 32.4111 147.762C29.8096 154.67 28.4707 162.075 28.4707 169.553L80.2354 169.553H132Z" fill="#D6AD5C"/>
<path d="M64.7059 216.141C64.7059 223.618 66.0449 231.023 68.6463 237.931C71.2477 244.84 75.0607 251.117 79.8675 256.404C84.6743 261.692 90.3808 265.886 96.6612 268.748C102.942 271.609 109.673 273.082 116.471 273.082C123.268 273.082 130 271.609 136.28 268.748C142.561 265.886 148.267 261.692 153.074 256.404C157.881 251.117 161.694 244.84 164.295 237.931C166.896 231.023 168.235 223.618 168.235 216.141L116.471 216.141L64.7059 216.141Z" fill="#D6AD5C"/>
<rect x="155" width="20.7059" height="157.882" fill="#E6BD6B"/>
<rect x="194.118" y="198.706" width="20.7059" height="157.882" transform="rotate(-90 194.118 198.706)" fill="#E6BD6B"/>
<rect x="180" y="158.357" width="116.471" height="20.7059" transform="rotate(-45 180 158.357)" fill="#CC6633"/>
</svg>
