<?xml version="1.0" encoding="utf-8"?>
<!-- Generator: Adobe Illustrator 24.1.3, SVG Export Plug-In . SVG Version: 6.00 Build 0)  -->
<svg version="1.1" id="Layer_1" xmlns="http://www.w3.org/2000/svg" xmlns:xlink="http://www.w3.org/1999/xlink" x="0px" y="0px"
	 viewBox="0 0 2000 2000" style="enable-background:new 0 0 2000 2000;" xml:space="preserve">
<style type="text/css">
	.st0{fill:url(#SVGID_1_);}
	.st1{fill:url(#SVGID_2_);}
	.st2{fill:url(#SVGID_3_);}
</style>
<g>
	<g>
		<linearGradient id="SVGID_1_" gradientUnits="userSpaceOnUse" x1="621.8955" y1="1000" x2="1378.1045" y2="1000">
			<stop  offset="0" style="stop-color:#E54B4B"/>
			<stop  offset="0.5348" style="stop-color:#FE7F54"/>
			<stop  offset="1" style="stop-color:#FFAA50"/>
		</linearGradient>
		<path class="st0" d="M1185.64,1069.13c13.66-18.35,29.45-37.13,45.66-56.33c19.2-22.19,38.83-45.66,57.18-71.27
			c23.04-31.58,45.24-66.57,61.88-107.97c16.64-41.39,27.31-88.76,27.74-145.52c0-42.67-8.11-83.64-22.62-121.62
			c-16.22-41.82-39.69-80.23-67-113.51c-34.99-42.25-78.95-77.24-129.3-101.14c-48.22-22.62-101.99-35.85-159.18-36.27h-0.43
			c-56.76,0.43-110.95,13.66-159.18,36.27c-49.93,23.9-93.88,58.89-128.88,101.14c-27.74,33.29-51.21,71.69-67,113.51
			c-14.51,37.98-23.04,78.95-22.62,121.62c0,56.76,11.1,104.13,27.74,145.52c16.64,41.39,38.83,76.39,61.45,107.97
			c15.36,21.34,37.13,46.09,60.6,72.55c58.46,67,129.73,148.08,138.69,217.64c1.28,9.81,10.24,16.64,19.63,15.36
			c9.82-1.28,16.64-10.24,15.36-19.63c-10.24-80.66-85.35-166-147.23-236.42c-22.62-26.46-43.96-50.36-58.04-70.41
			c-21.76-29.45-42.25-61.88-57.61-99.86c-15.36-37.98-25.18-81.08-25.18-132.72c-0.43-37.98,7.25-74.68,20.48-108.82
			c14.51-38.41,35.85-73.4,61.03-103.7c31.58-38.41,71.27-69.99,116.93-91.32c43.95-20.91,92.6-32.86,144.24-33.29
			c51.64,0.43,100.29,12.38,144.24,33.29c45.23,21.34,85.35,52.92,116.93,91.32c25.18,30.3,46.52,65.29,61.02,103.7
			c13.23,34.14,20.48,70.84,20.48,108.82c0,51.64-10.24,94.74-25.18,132.72c-15.36,37.98-36.27,70.41-57.61,99.86
			c-17.5,24.32-36.7,46.94-55.48,69.56c-16.22,18.78-32.01,37.13-46.52,57.18c-0.85,0.43-1.28,1.28-2.13,1.71
			c-0.43,0.43,0.43,0.85,0,0.85c0,0,0-0.43-0.85-0.85c-0.85-0.85-1.71-1.71-2.56-2.56c-18.16-20.23-28.35-41.38-33.14-63.5
			c60.57-36.44,111.48-105.88,137.26-184.44c13.23-40.11,20.48-83.22,18.78-125.46c-1.71-42.25-11.52-84.5-32.43-122.05
			c-30.3-55.05-82.79-101.14-163.44-127.6l-12.38-4.27l-7.68,10.67c-95.16,133.57-105.83,251.35-83.64,346.09
			c20.49,87.47,68.96,154.87,105.16,197.62c2.64,22.96,9.7,45.36,23.22,67.41c-9.77-3.83-19.47-7.88-28.96-12.4
			c-62.73-29.45-119.49-74.68-155.76-131.86c-35.42-56.76-50.36-125.89-30.3-205.26c5.55-21.34,13.66-43.53,24.32-66.57l14.94-9.82
			c-0.43,0-72.97-112.66-135.28-101.99c-14.51,2.56-25.6,8.53-33.29,17.07c-8.11,8.96-11.95,19.63-11.1,32.01
			c0.43,10.67,4.27,22.19,11.95,33.71c2.13,2.99,4.69,6.4,7.25,9.39c-16.64,1.28-30.72,5.97-41.39,12.38
			c-15.79,9.82-24.75,23.47-27.74,39.26c-2.56,15.36,1.71,31.58,12.8,45.66c6.83,8.96,17.07,17.07,29.87,23.47
			c-7.25,5.55-12.8,11.52-17.07,18.35c-9.39,14.94-11.1,32.01-6.4,47.37c4.69,14.51,14.94,27.74,29.45,36.27
			c22.19,13.66,54.2,16.22,87.91-5.55l-19.2-29.87c-20.48,13.23-38.41,12.38-50.36,5.12c-6.83-4.27-11.52-10.24-13.66-16.64
			c-1.71-5.97-1.28-12.38,2.13-17.92c7.26-11.1,24.75-20.91,57.18-23.04c4.69,0,9.39-0.43,14.51-0.43l-1.28-35.42h-1.28h-0.43
			c-3.84,0-7.68,0-11.52,0.43c-37.55,0.43-61.45-10.24-72.12-23.9c-4.69-5.97-6.4-12.38-5.55-17.92c1.28-5.55,5.12-11.1,11.52-14.94
			c17.07-10.67,49.5-11.95,97.3,8.11l13.66-32.86h-0.43c-34.14-14.94-55.48-31.58-65.72-47.37c-3.84-5.55-5.97-11.1-5.97-15.36
			c-0.43-2.56,0.43-4.69,1.71-6.4c2.56-2.56,6.83-4.69,13.23-5.97c26.11-4.54,61.44,35.06,82.2,62.24
			c-11.86,25.05-20.78,49.26-26.72,72.61c-22.62,89.62-5.55,168.14,34.99,232.58c39.69,63.59,101.99,113.09,170.27,145.09
			c28.59,13.66,58.04,24.32,87.48,31.58c12.8,3.41,23.47,10.67,31.15,21.34c7.25,10.67,11.52,24.32,11.52,41.82v270.81
			c-17.09,4.57-33.51,12.35-48.65,23.21c-18.78,13.23-35.42,31.15-48.22,52.92c-12.38,21.76-19.63,45.24-21.76,67.85
			c-2.13,23.9,0.85,47.8,9.39,68.71l5.12,13.23l14.08-2.13c13.66-2.13,26.89-5.97,39.69-11.95c6.14-2.96,12.27-6.35,18.26-10.15
			c9.72,19.18,23.29,35.54,38.93,48.13l11.1,8.54l11.1-8.54c16.02-12.59,29.29-28.95,38.94-48.13c5.98,3.8,12.11,7.19,18.24,10.15
			c12.8,5.97,26.46,9.82,40.11,11.95l13.66,2.13l5.12-13.23c8.54-20.91,11.52-44.81,9.39-68.71c-2.13-22.62-9.39-46.09-21.76-67.85
			c-12.8-21.76-29.02-39.69-47.8-52.92c-15.16-10.87-31.85-18.66-49.07-23.23v-270.8c0-24.75-6.83-46.09-18.35-62.3
			c-6.27-9.08-14.09-16.62-22.99-22.52c0.26-0.33,0.55-0.58,0.8-0.95L1185.64,1069.13z M1124.62,1605.55
			c-5.12,2.56-10.24,4.69-15.36,5.97c-2.99-11.95-3.84-24.75-2.56-37.98c1.71-17.92,7.25-36.27,17.07-53.34
			c8.2-14,18.06-25.78,29.32-35.19c-8.91,20.1-13.96,42.44-13.96,66.34c0,14.87,1.98,29.13,5.59,42.64
			C1138.33,1598.59,1131.59,1602.52,1124.62,1605.55z M1229.17,1606.41c-5.55,11.95-12.8,22.62-21.34,31.58
			c-8.54-8.96-15.79-19.63-21.34-31.58c-7.25-16.22-11.52-34.99-11.52-55.05c0-20.06,4.27-38.83,11.52-55.05
			c5.55-11.95,12.8-22.62,21.34-31.58c8.54,8.96,15.79,19.63,21.34,31.58c7.25,16.22,11.52,34.99,11.52,55.05
			C1240.69,1571.41,1236.43,1590.19,1229.17,1606.41z M1291.9,1520.2c9.81,17.07,15.79,35.42,17.07,53.34
			c1.28,13.23,0.43,26.03-2.56,37.98c-5.12-1.28-10.24-3.41-15.36-5.97c-6.97-3.03-13.71-6.96-20.1-11.56
			c3.61-13.51,5.59-27.76,5.59-42.64c0-23.93-5.06-46.29-13.98-66.4C1273.94,1494.38,1284.03,1506.17,1291.9,1520.2z
			 M1211.67,568.13c17.92,32.86,26.89,69.13,28.17,106.26c1.28,37.98-5.12,76.39-17.07,113.09
			c-21.23,64.1-60.14,121.42-106.84,155.38c1.17-34.74,11.18-71.78,21.92-111.43c27.21-99.14,58.27-213.51-19-352.79
			C1162.12,501.91,1192.21,532.89,1211.67,568.13z M1073.7,471.88c87.54,138.03,56.79,252.07,30,350.17
			c-9.13,33.42-17.73,65.15-21.74,95.68c-28.06-38.38-57.3-88.95-71.72-149.88C991.2,686.67,999.09,586.19,1073.7,471.88z"/>
		<linearGradient id="SVGID_2_" gradientUnits="userSpaceOnUse" x1="914.2319" y1="1295.948" x2="1152.3557" y2="1295.948">
			<stop  offset="0" style="stop-color:#E54B4B"/>
			<stop  offset="0.5348" style="stop-color:#FE7F54"/>
			<stop  offset="1" style="stop-color:#FFAA50"/>
		</linearGradient>
		<path class="st1" d="M1152.36,1295.73c0-9.82-7.68-17.5-17.5-17.5H931.73c-9.82,0-17.5,7.68-17.5,17.5
			c0,9.81,7.68,17.92,17.5,17.92h203.13C1144.67,1313.66,1152.36,1305.55,1152.36,1295.73z"/>
		<linearGradient id="SVGID_3_" gradientUnits="userSpaceOnUse" x1="956.4797" y1="1388.1251" x2="1110.108" y2="1388.1251">
			<stop  offset="0" style="stop-color:#E54B4B"/>
			<stop  offset="0.5348" style="stop-color:#FE7F54"/>
			<stop  offset="1" style="stop-color:#FFAA50"/>
		</linearGradient>
		<path class="st2" d="M1110.11,1387.91c0-9.82-8.11-17.5-17.92-17.5H974.4c-9.82,0-17.92,7.68-17.92,17.5
			c0,9.81,8.11,17.92,17.92,17.92h117.78C1102,1405.84,1110.11,1397.73,1110.11,1387.91z"/>
	</g>
</g>
</svg>
