<svg width="173" height="172" viewBox="0 0 173 172" fill="none" xmlns="http://www.w3.org/2000/svg">
<path d="M86.5162 171.333C39.2736 171.333 0.874023 132.934 0.874023 85.691C0.874023 38.4484 39.2736 0.0488281 86.5162 0.0488281C133.759 0.0488281 172.158 38.4484 172.158 85.691C172.158 132.934 133.759 171.333 86.5162 171.333ZM86.5162 11.9989C45.886 11.9989 12.8241 45.0608 12.8241 85.691C12.8241 126.321 45.886 159.383 86.5162 159.383C127.146 159.383 160.208 126.321 160.208 85.691C160.208 45.0608 127.146 11.9989 86.5162 11.9989Z" fill="#292D32"/>
<path d="M86.5178 109.67C85.0041 109.67 83.4904 109.112 82.2954 107.917L54.1726 79.7945C51.8622 77.4842 51.8622 73.6602 54.1726 71.3498C56.4829 69.0396 60.307 69.0396 62.6173 71.3498L86.5178 95.25L110.418 71.3498C112.728 69.0396 116.552 69.0396 118.863 71.3498C121.173 73.6602 121.173 77.4842 118.863 79.7945L90.7401 107.917C89.5451 109.112 88.0314 109.67 86.5178 109.67Z" fill="#292D32"/>
</svg>
